<?xml version="1.0" encoding="utf-8"?>
<!-- Generator: Adobe Illustrator 24.0.1, SVG Export Plug-In . SVG Version: 6.00 Build 0)  -->
<svg version="1.1" id="Layer_1" xmlns="http://www.w3.org/2000/svg" xmlns:xlink="http://www.w3.org/1999/xlink" x="0px" y="0px"
	 viewBox="0 0 512 512" style="enable-background:new 0 0 512 512;" xml:space="preserve">
<style type="text/css">
	.st0{fill:#FFC670;}
	.st1{fill:#FFF6E6;}
	.st2{fill:#79DEB4;}
	.st3{fill:#A04949;}
</style>
<g>
	<path id="Rectangle-path-2" class="st0" d="M177.94,12.12l246.1,56.82c13.67,3.16,22.2,16.8,19.04,30.47l-88.1,381.62
		c-3.16,13.67-16.8,22.2-30.47,19.04l-246.1-56.82c-13.67-3.16-22.2-16.8-19.04-30.47l88.1-381.62
		C150.62,17.49,164.27,8.96,177.94,12.12z"/>
	<path id="Rectangle-path-3" class="st1" d="M124.97,37.94h252.58c14.03,0,25.41,11.38,25.41,25.41v394.8
		c0,14.03-11.38,25.41-25.41,25.41H124.97c-14.03,0-25.41-11.38-25.41-25.41V63.35C99.56,49.32,110.93,37.94,124.97,37.94z"/>
	<path id="Shape" class="st2" d="M212.85,104.31l-23.54,23.64l-23.2-23.64c-10.59,10.71-12.72,27.17-5.22,40.23
		c9.12,15.88,29.38,21.37,45.26,12.26c10.33-5.93,16.68-16.93,16.65-28.84C222.73,119.07,219.15,110.57,212.85,104.31z"/>
	<path id="Shape-2" class="st3" d="M340.08,512c-2.22,0-4.43-0.26-6.59-0.77l-101.93-23.54l-1.05-0.48H122.94
		c-15.74-0.01-28.49-12.76-28.52-28.49v-2.53l-20.02-4.68c-15.35-3.44-25.01-18.66-21.57-34.01c0.02-0.1,0.05-0.21,0.07-0.31
		l41.46-179.83V53.3c0.03-15.76,12.82-28.51,28.58-28.49h20.57l0.57-2.53C147.54,6.9,162.82-2.76,178.2,0.7
		c0.12,0.03,0.25,0.06,0.37,0.09L282.49,24.9h106.68c15.74,0.01,28.49,12.76,28.52,28.49v3.03l19.97,4.17
		c7.4,1.68,13.83,6.23,17.89,12.64c4.03,6.43,5.3,14.21,3.53,21.59l-41.44,179.41v184.48c-0.03,15.74-12.78,28.48-28.52,28.49
		h-20.64l-0.57,2.53c-2.94,13-14.48,22.23-27.81,22.24L340.08,512z M314.19,486.82L314.19,486.82l23.58,5.5
		c4.47,1.02,9.03-1.31,10.83-5.52L314.19,486.82z M122.94,43.9c-5.25,0-9.5,4.25-9.51,9.49v404.86c0,5.25,4.26,9.51,9.51,9.51
		h266.23c5.25,0,9.5-4.25,9.51-9.49V53.39c-0.01-5.25-4.26-9.49-9.51-9.49L122.94,43.9z M94.36,322.29l-22.92,98.69
		c-1.22,5.11,1.94,10.23,7.05,11.45c0.06,0.01,0.12,0.03,0.18,0.04l15.69,3.69L94.36,322.29z M417.64,75.41v114.41l22.92-99.22
		c1.26-5.1-1.85-10.25-6.94-11.51c-0.1-0.02-0.19-0.05-0.29-0.07L417.64,75.41z M172.12,19.07c-3.8,0-7.23,2.25-8.74,5.74h34.52
		l-23.68-5.5C173.54,19.15,172.83,19.07,172.12,19.07z"/>
	<path id="Shape-3" class="st3" d="M346.07,417.42H165.93v-76.19c-0.03-5.2-4.28-9.4-9.48-9.37c-5.2-0.03-9.45,4.16-9.48,9.37v85.56
		c0.03,5.2,4.28,9.4,9.48,9.37h189.62c5.17,0,9.37-4.19,9.37-9.36C355.44,421.61,351.25,417.42,346.07,417.42
		C346.07,417.42,346.07,417.42,346.07,417.42z"/>
	<path id="Shape-4" class="st3" d="M187.56,170.68c-22.4-0.01-40.56-18.16-40.59-40.55c-0.06-7.55,2.02-14.97,5.99-21.39
		c-3.62-3.66-3.59-9.57,0.07-13.19c1.75-1.73,4.12-2.7,6.58-2.7c2.48-0.01,4.86,0.97,6.61,2.72l21.2,21.26l38.29-38.2
		c3.67-3.68,9.63-3.68,13.31-0.01c3.68,3.67,3.68,9.63,0.01,13.31l-17.07,16.95c4.06,6.35,6.25,13.71,6.32,21.25
		C228.18,152.55,209.98,170.67,187.56,170.68z M167.03,122.82c-0.99,2.32-1.56,4.79-1.68,7.31c0.77,12.09,11.19,21.27,23.28,20.5
		c11.02-0.7,19.8-9.48,20.5-20.5c-0.04-2.49-0.46-4.95-1.26-7.31l-13.91,13.91c-3.45,3.55-9.13,3.62-12.67,0.17
		c-0.06-0.06-0.11-0.11-0.17-0.17L167.03,122.82z"/>
	<path id="Shape-5" class="st3" d="M189.62,274.97h-0.09c-23.56-0.07-42.61-19.23-42.54-42.79c0.05-17.21,10.44-32.71,26.34-39.29
		c21.77-9.02,46.73,1.32,55.75,23.09c9.02,21.77-1.32,46.73-23.09,55.75C200.79,273.87,195.23,274.98,189.62,274.97z M189.62,209.4
		h-0.09c-12.7,0.03-22.97,10.35-22.94,23.05c0.03,12.7,10.35,22.97,23.05,22.94s22.97-10.35,22.94-23.05
		c-0.03-12.66-10.28-22.91-22.94-22.94H189.62z"/>
	<path id="Shape-6" class="st3" d="M346.21,293.93h-36.66c-5.21,0.05-9.39,4.31-9.34,9.52c0,0,0,0,0,0
		c-0.05,5.21,4.13,9.47,9.34,9.52c0,0,0,0,0,0h14.15l-52.21,53.46l-36.66-38.05c-3.56-3.64-9.39-3.7-13.03-0.14
		c-0.05,0.05-0.09,0.09-0.14,0.14l-33.5,34.14c-2.68,2.35-3.83,5.99-3.01,9.46c0.8,3.45,3.46,6.17,6.9,7.03
		c3.43,0.83,7.02-0.36,9.28-3.07l26.9-27.39l36.66,37.39c3.54,3.66,9.39,3.76,13.05,0.21c0.07-0.07,0.14-0.14,0.21-0.21l58.76-59.42
		v14.18c0,5.16,4.18,9.35,9.34,9.35s9.35-4.18,9.35-9.34c0,0,0-0.01,0-0.01v-37.25c0.05-5.21-4.13-9.47-9.34-9.52
		C346.23,293.93,346.22,293.93,346.21,293.93z"/>
	<path id="Shape-7" class="st3" d="M260.29,227.57h38.81c5.11-0.12,9.16-4.37,9.04-9.48c0.12-5.11-3.93-9.36-9.04-9.48h-38.81
		c-5.11,0.12-9.16,4.37-9.04,9.48C251.14,223.2,255.18,227.44,260.29,227.57z"/>
	<path id="Shape-8" class="st3" d="M260.52,265.49h76.28c5.18-0.06,9.32-4.31,9.27-9.48c0.06-5.18-4.09-9.42-9.27-9.48h-76.28
		c-5.18,0.06-9.32,4.31-9.27,9.48C251.2,261.18,255.35,265.43,260.52,265.49z"/>
	<path id="Shape-9" class="st3" d="M260.29,123.27h38.81c5.11-0.12,9.16-4.37,9.04-9.48c0.12-5.11-3.93-9.36-9.04-9.48h-38.81
		c-5.11,0.12-9.16,4.37-9.04,9.48C251.14,118.9,255.18,123.15,260.29,123.27z"/>
	<path id="Shape-10" class="st3" d="M260.52,161.2h76.28c5.18-0.06,9.32-4.31,9.27-9.48c0.06-5.18-4.09-9.42-9.27-9.48h-76.28
		c-5.18,0.06-9.32,4.31-9.27,9.48C251.2,156.89,255.35,161.13,260.52,161.2z"/>
</g>
</svg>
