<?xml version="1.0" encoding="utf-8"?>
<!-- Generator: Adobe Illustrator 24.0.1, SVG Export Plug-In . SVG Version: 6.00 Build 0)  -->
<svg version="1.1" id="Layer_1" xmlns="http://www.w3.org/2000/svg" xmlns:xlink="http://www.w3.org/1999/xlink" x="0px" y="0px"
	 viewBox="0 0 512 512" style="enable-background:new 0 0 512 512;" xml:space="preserve">
<style type="text/css">
	.st0{fill:#434241;}
</style>
<path id="Mask-2" class="st0" d="M272.22,503.99h-33.19c-16.78,0.46-31.36-11.48-34.22-28.02l-8.3-49.79
	c-22.59-7.48-43.42-19.49-61.21-35.29l-47.66,17.56c-3.67,1.28-7.51,1.98-11.39,2.08c-12.27,0.19-23.72-6.13-30.1-16.61
	l-16.68-28.97c-8-14.64-4.54-32.89,8.28-43.57l38.41-32.16c-2.11-11.65-3.15-23.46-3.11-35.29c0.03-11.77,1.08-23.53,3.14-35.12
	l-38.41-32.26c-13.2-10.45-16.73-29.01-8.28-43.57l16.58-29.07c8.08-13.54,24.39-19.76,39.43-15.05l2.13,0.55l47.66,17.56
	c18.27-15.65,39.41-27.6,62.24-35.19l8.3-47.66c3.38-15.97,17.95-27.04,34.24-26.01h33.19c16.3-1.15,30.94,9.93,34.24,25.94
	l8.28,48.77c22.6,7.47,43.44,19.47,61.23,35.27l47.66-17.56c3.67-1.28,7.52-1.98,11.41-2.08c12.24-0.09,23.65,6.2,30.1,16.61
	l16.61,29.05c7.98,14.65,4.5,32.89-8.3,43.57l-38.38,32.16c4.15,23.33,4.15,47.21,0,70.54l38.38,32.16
	c12.79,9.41,15.99,27.19,7.27,40.46l-15.58,26.99c-6.38,10.48-17.84,16.79-30.1,16.58c-4.13-0.18-8.22-0.84-12.19-1.98h-0.28
	l-44.6-17.56c-18.47,17.23-40.39,30.32-64.32,38.41l-8.28,49.79C303.22,491.64,288.98,503.63,272.22,503.99z M256.67,142.96
	c-63.02,0-114.11,51.09-114.11,114.11s51.09,114.11,114.11,114.11s114.11-51.09,114.11-114.11l0,0
	C370.71,194.08,319.67,143.03,256.67,142.96z M256.67,329.7c-40.11-0.07-72.56-32.64-72.5-72.75c0.07-40.11,32.64-72.56,72.75-72.5
	c40.01,0.07,72.43,32.49,72.5,72.5c0.49,39.68-31.28,72.23-70.95,72.72c-0.6,0.01-1.19,0.01-1.79,0V329.7z"/>
</svg>
