<svg version="1.1" baseProfile="tiny" xmlns="http://www.w3.org/2000/svg" xmlns:xlink="http://www.w3.org/1999/xlink" x="0px" y="0px" viewBox="0 0 20 20" xml:space="preserve" width="16" height="16" ratio="0.8"> 
<path id="XMLID_4_" fill="none" stroke="#ffffff" stroke-miterlimit="10" d="M18.976,2.203l-6.46,6.461v9.723  c0,0.341-0.21,0.642-0.511,0.773c-0.105,0.04-0.223,0.066-0.328,0.066c-0.223,0-0.433-0.078-0.589-0.249l-3.355-3.355  c-0.158-0.157-0.249-0.367-0.249-0.589V8.664l-6.46-6.461C0.775,1.967,0.709,1.6,0.841,1.286c0.131-0.301,0.432-0.511,0.773-0.511  h16.773c0.341,0,0.642,0.21,0.773,0.511C19.291,1.6,19.225,1.967,18.976,2.203z"></path>

 </svg>